<?xml version="1.0" encoding="iso-8859-1"?>
<!-- Generator: Adobe Illustrator 19.0.0, SVG Export Plug-In . SVG Version: 6.00 Build 0)  -->
<svg version="1.1" id="Capa_1" xmlns="http://www.w3.org/2000/svg" xmlns:xlink="http://www.w3.org/1999/xlink" x="0px" y="0px"
	 viewBox="0 0 512 512" style="enable-background:new 0 0 512 512;" xml:space="preserve">
<path style="fill:#FFBFAB;" d="M478.238,310h-61c18.64,0,33.75-15.612,33.75-34.25c0-18.64-15.11-33.75-33.75-33.75h-56.25v67.5h-60
	V377h-30v68h146.25c18.64,0,33.75-15.612,33.75-34.25c0-18.64-15.11-33.75-33.75-33.75h61c18.64,0,33.75-15.112,33.75-33.75
	C511.988,324.61,496.878,310,478.238,310z"/>
<path style="fill:#89F900;" d="M390.988,227c0,80.7-52.8,150-90,188.699c-12.9,13.5-23.699,23.101-30,28.2l-15,0.601l-15,0.3
	L120.387,362l0.601-135c0-13.5,1.5-26.7,4.2-39.6c18.6-89.399,94.2-161,115.8-179.299h30c10.8,9,35.099,32.899,59.099,63.8
	L305.489,117.5l41.999-20.999c14.101,21.599,26.7,46.199,34.801,72.898l-16.8,38.101l24-2.999
	C390.387,212,390.988,219.5,390.988,227z"/>
<path style="fill:#77DD00;" d="M390.988,227c0,80.7-52.8,150-90,188.699c-12.9,13.5-23.699,23.101-30,28.2l-15,0.601V8.101h15
	c10.8,9,35.099,32.899,59.099,63.8L305.489,117.5l41.999-20.999c14.101,21.599,26.7,46.199,34.801,72.898l-16.8,38.101l24-2.999
	C390.387,212,390.988,219.5,390.988,227z"/>
<g>
	<path style="fill:#00CC71;" d="M245.382,306.395c-5.859,5.859-5.859,15.352,0,21.211c2.93,2.93,6.768,4.395,10.605,4.395
		c3.838,0,7.676-1.465,10.605-4.395l122.961-122.961c-1.43-12.048-3.9-23.795-7.275-35.147L245.382,306.395z"/>
	<path style="fill:#00CC71;" d="M245.382,177.605c2.93,2.93,6.768,4.395,10.605,4.395c3.838,0,7.676-1.465,10.605-4.395
		l80.993-80.993c-5.718-8.758-11.631-17.109-17.609-24.813l-84.595,84.595C239.523,162.254,239.523,171.746,245.382,177.605z"/>
</g>
<path style="fill:#77DD00;" d="M270.988,8.101V443.9c-2.999,2.401-5.099,4.2-5.7,4.801c-2.701,2.098-6,3.3-9.3,3.3
	c-3.3,0-6.599-1.201-9.3-3.3l-5.7-3.9V8.101c2.999-2.701,5.099-4.2,5.7-4.801c2.701-2.1,6-3.3,9.3-3.3c3.3,0,6.599,1.199,9.3,3.3
	C265.888,3.6,267.988,5.4,270.988,8.101z"/>
<path style="fill:#00CC71;" d="M270.988,8.101V443.9c-2.999,2.401-5.099,4.2-5.7,4.801c-2.701,2.098-6,3.3-9.3,3.3V0
	c3.3,0,6.599,1.199,9.3,3.3C265.888,3.6,267.988,5.4,270.988,8.101z"/>
<path style="fill:#FFBFAB;" d="M255.988,242v-60h30c8.401,0,15,6.599,15,15C300.988,221.899,280.888,242,255.988,242z"/>
<path style="fill:#FFCEBF;" d="M390.988,478.1v0.3c0,18.6-15,33.6-33.6,33.6H172.587C85.588,512,7.488,447.499,0.588,360.799
	C-6.313,277.7,49.588,206,125.188,187.4c12.9-3.6,26.7-5.4,40.8-5.4h120c8.401,0,15,6.599,15,15c0,24.899-20.099,45-45,45h-77.401
	c-31.8,0-53.399,32.1-41.999,61.8c28.2,71.999,86.999,125.7,105,140.7c2.699,2.399,4.499,3.9,5.099,4.2c2.701,2.098,6,3.3,9.3,3.3
	c3.3,0,6.599-1.201,9.3-3.3c0.601-0.601,2.401-1.302,5.099-3.7h87.001C375.988,445,390.988,459.5,390.988,478.1z"/>
<path style="fill:#FFBFAB;" d="M390.988,478.1v0.3c0,18.6-15,33.6-33.6,33.6h-101.4v-60c3.3,0,6.599-1.201,9.3-3.3
	c0.601-0.601,2.401-1.302,5.099-3.7h87.001C375.988,445,390.988,459.5,390.988,478.1z"/>
<g>
</g>
<g>
</g>
<g>
</g>
<g>
</g>
<g>
</g>
<g>
</g>
<g>
</g>
<g>
</g>
<g>
</g>
<g>
</g>
<g>
</g>
<g>
</g>
<g>
</g>
<g>
</g>
<g>
</g>
</svg>
